<?xml version="1.0" encoding="UTF-8"?>
<svg clip-rule="evenodd" fill-rule="evenodd" image-rendering="optimizeQuality" shape-rendering="geometricPrecision" text-rendering="geometricPrecision" viewBox="0 0 8140 7377" xml:space="preserve" xmlns="http://www.w3.org/2000/svg">
 <defs>
  <style type="text/css">
    .str0 {stroke:black;stroke-width:26.56}
    .fil0 {fill:black}
  </style>
 </defs>
   <path class="fil0" d="m1570 2911c-23-157-25-294-4-410 188 85 353 139 500 165 191 37 219-89 214-248 104-35 112-83 83-124l12-56c36-38 129-56 88-117-28-155 88-137 150-182 116-45-88-276-157-430 44-207 133-413 107-620l75-124c-285-560-1700-1129-2212-467-650 826-390 1555-280 2606 17 114 88 184 189 223-56 112-111 249-155 420-368 1407 340 2930-53 3813l2061-10c-15-102-7-202 0-292 732 159 1463 70 2195 102 354-34 293-170 641-270 68-15 137 30 205 102 27 41 471 27 437-56-34-117-92-230-213-334-63-40-108-89-242-93 80-71 147-50 213-36l317 157c181 86 222 8 213-28-310-128-567-334-753-326h-252c-94 0-184-4-260 75-222 125-507 470-790 437l-2201-640-29-8c63-736 44-1785-265-2470l9-5c333 655 339 1755 285 2469l580 103 154-1102c72-508-19-841-305-1318-198-332-222-660-558-907zm-456 3857l2 5 9-4c-193-429-267-994-287-1467h-26c22 464 94 1058 302 1466z"/>
   <path class="fil0 str0" d="m4459 7353h2018c4-95 106-278 10-276l-2097 112c-123 7-323 10-368 52-32 31-36 64-32 109l470 3z"/>
   <polygon class="fil0" points="6726 7065 6958 7140 8140 3453 7908 3379"/>
   <path class="fil0 str0" d="m7340 6016s507 1065 519 1091c62 137 45 190-121 201l-1102 49 1144 7c221-13 226-114 177-237l-604-1268-14 157z"/>
</svg>
