<?xml version="1.0" encoding="UTF-8"?>
<svg width="310.31" height="34.632" version="1.1" viewBox="0 0 310.31445 34.632366" xmlns="http://www.w3.org/2000/svg">
 <path d="m12.018 32.074c-21.494-10.062-12.359-31.483 13.16-30.859 8.4169 0.2057 13.772 2.5961 18.317 8.1765 3.4022 4.1771 11.037 5.5279 12.35 2.1852 1.5899-4.0458 7.3451-9.1943 11.073-9.906 14.368-2.7429 26.085 0.34 30.925 8.1371 2.6673 4.2963 9.4834 3.9696 13.378-0.64107 9.7791-11.578 39.928-10.225 39.635 1.778-0.0542 2.215 13.704 1.2476 14.815-1.0417 5.5456-11.423 27.933-12.435 38.425-1.7365 5.108 5.2086 10.46 5.9281 12.791 1.7193 7.3022-13.185 32.11-13.181 39.471 0.0057 1.3732 2.4599 1.857 2.6532 5.8926 2.3534 2.4181-0.17964 4.7135-0.3443 5.1009-0.36591 0.38736-0.02161 0.71729-0.57078 0.73317-1.2204 0.30746-12.584 36.122-13.236 41.031-0.74707 8.4255 21.436-30.045 35.207-40.488 14.494-0.5724-1.1354-1.7345-1.9469-2.5825-1.8034-0.84794 0.14353-3.019 0.27316-4.8246 0.28807-2.7219 0.02247-3.7462 0.66285-5.9945 3.7476-7.39 10.14-27.026 10.063-35.8-0.14037-4.667-5.4266-10.538-5.6307-13.367-0.46474-6.671 12.179-41.75 9.9762-41.442-2.6027 0.056-2.281-12.433-1.1128-13.701 1.2816-6.299 11.897-34.701 12.202-39.722 0.42652-1.123-2.6333-12.174-3.6144-12.236-1.0863-0.31608 12.933-38.964 13.109-42.745 0.19434-1.0856-3.7086-9.3384-2.4307-12.217 1.8918-4.7755 7.1706-22.367 10.436-31.979 5.9363zm24.096-1.7917c1.7453-0.67992 3.7691-1.92 4.4974-2.7558 1.8662-2.1415 0.80741-1.9107-3.2692 0.71261-1.9305 1.2423-4.6108 2.2276-5.9563 2.1897-1.9497-0.05497-1.4037-0.52366 2.6894-2.3086 6.6701-2.9088 5.5-4.6881-1.7834-2.7119-13.264 3.599-27.525-2.7417-23.129-10.284 3.435-5.8934 18.374-8.5354 24.979-4.4175 5.7953 3.6131 10.404 2.8138 7.1777-1.2448-7.155-9.0002-30.573-7.8351-36.796 1.8307-8.4513 13.128 13.211 26.149 31.59 18.989zm55.515-0.65828c1.9557-1.4175 3.3415-2.8024 3.0794-3.0776-0.26204-0.27517-1.2492 0.16546-2.1938 0.97917-1.9306 1.6632-8.0564 4.2249-9.8891 4.1353-0.6605-0.0323 0.87507-1.0135 3.4124-2.1805 7.9536-3.6581 7.654-5.996-0.38747-3.0229-5.0807 1.8784-11.479 1.6424-16.228-0.59858-4.9038-2.314-11.009-1.496-8.8873 1.1909 4.5457 5.7579 24.43 7.4041 31.094 2.5741zm46.962 1.4584c3.6322-0.91345 8.0151-3.3465 8.1023-4.4977 0.0239-0.3161-1.9502 0.37416-4.387 1.5339-2.4368 1.1597-5.3074 2.0636-6.3791 2.0086-1.2624-0.06481-0.54188-0.63185 2.0461-1.6102 4.8093-1.8182 7.1999-3.7381 4.7296-3.7985-0.89444-0.02178-2.7018 0.62798-4.0163 1.4441-3.4625 2.1497-14.339 1.8598-17.715-0.4721-2.7515-1.9005-7.8241-0.93073-6.5478 1.2518 2.2974 3.9287 15.806 6.2429 24.168 4.1401zm58.355-0.5142c2.6832-0.91428 5.4054-2.2665 6.0494-3.005 1.6042-1.8395 0.62836-1.7039-3.0649 0.42589-4.139 2.3868-5.8546 2.2511-1.8957-0.15 4.2641-2.5861 2.9554-3.9908-1.6566-1.7782-5.688 2.7287-14.377 2.5006-19.434-0.51035-6.2246-3.7062-10.517-0.28152-4.5362 3.6196 6.1242 3.995 15.37 4.5218 24.538 1.398zm46.6 0.91604c3.6368-0.76233 6.4039-2.0196 8.0606-3.6623l2.5228-2.5015-2.8586 1.8494c-1.5722 1.0172-3.9197 2.1028-5.2167 2.4124-2.0779 0.49605-2.0028 0.34911 0.63121-1.2361 1.6442-0.9895 3.2824-2.2481 3.6404-2.797 1.015-1.556-1.599-1.2306-4.2116 0.5244-2.9549 1.9849-13.019 1.7394-17.855-0.43549-2.715-1.2211-3.7222-1.2895-5.5341-0.37597l-2.2151 1.1167 2.4297 1.6783c5.9647 4.1199 12.286 5.1712 20.606 3.4271zm53.715-0.30742c10.692-2.416 15.576-15.308 8.5822-22.652-7.9617-8.3606-25.292-8.5835-33.848-0.43534-4.0529 3.8595 0.44639 5.6714 5.2197 2.102 6.9138-5.17 22.403-3.6854 25.492 2.4435 5.35 10.612-11.992 19.297-23.807 11.922-2.1833-1.3627-2.9807-1.435-5.2319-0.47424l-2.656 1.1335 2.7562 2.3399c4.8768 4.1402 14.578 5.6353 23.493 3.6207zm-4.3033-2.1968c5.1819-1.0023 10.403-3.5679 10.441-5.131 0.0132-0.45616 0.45684-0.81876 0.99046-0.80572 1.7586 0.04294-1.0369 3.7378-4.2145 5.5704-2.0042 1.1559-4.6171 1.6836-7.7149 1.5582l-4.6843-0.18957 5.1823-1.0023zm-260.36-5.8418c0.55145-0.52514 0.01846-1.0936-1.3919-1.4844-4.0927-1.1342-3.4722-8.1851 0.7113-8.0829 2.3593 0.05763 2.076-1.5017-0.40547-2.2322-12.003-3.533-27.208 4.2992-19.15 9.8645 4.4078 3.0446 17.733 4.3187 20.237 1.935zm53.691 1.1809c1.7359-0.65852 1.6778-0.78039-0.7002-1.4678-5.8369-1.6872-6.1253-7.9575-0.46306-10.069l2.4049-0.89667-3.21-1.4531c-3.7093-1.6792-11.857-1.2474-14.721 0.78014-1.6726 1.1842-1.6051 1.3235 1.1498 2.3772 4.5631 1.7452 4.751 6.98 0.30672 8.5466-2.0054 0.70686-2.2264 1.0531-1.1367 1.7802 1.6493 1.1005 13.745 1.3976 16.37 0.40217zm51.341 0.08376c2.7768-0.97154 3.5424-2.5351 1.2685-2.5907-3.7847-0.09248-3.8543-7.5068-0.0852-9.0793l2.1329-0.88989-2.2934-1.3011c-2.9444-1.6704-11.378-1.6623-14.751 0.01415l-2.6107 1.2977 2.5272 1.0415c5.0894 2.0974 3.397 9.5691-2.1369 9.4339-2.4821-0.06071 0.1429 1.9933 3.6514 2.8571 3.5359 0.87053 8.4679 0.55631 12.297-0.78346zm57.587-0.38474c1.4427-1.1329 1.2849-1.3141-1.5732-1.8058-5.9858-1.0298-6.8988-7.8601-1.2421-9.2918l2.9661-0.75074-3.4227-1.5954c-2.414-1.1252-4.7551-1.4545-7.9438-1.1174-7.0196 0.74204-10.261 2.9836-6.0613 4.1921 3.7226 1.0713 3.0222 8.2533-0.79579 8.16-1.7961-0.04392-0.65475 1.7729 1.8358 2.9223 2.82 1.3014 14.314 0.79646 16.237-0.7133zm48.078 0.91286c4.045-1.3508 4.6978-2.8567 1.6092-3.7127-4.5771-1.2684-3.3082-9.0874 1.4559-8.971 4.0402 0.09875-3.217-3.0166-8.4415-3.6237-5.1644-0.60013-6.2045-0.4333-8.6105 1.3812l-2.7366 2.0638 3.0316 1.0939c4.5797 1.6524 5.2559 4.8839 1.6864 8.0586l-2.8429 2.5285 2.9871 1.0406c4.024 1.4018 7.9457 1.4484 11.861 0.1408zm-172.13-5.1419c5.2986-3.8218 1.1041-4.8483-19.653-4.8096-18.427 0.03439-22.365 0.87425-20.34 4.338 0.82989 1.4192 38.071 1.8583 39.993 0.4716zm-28.804-1.3251c3.102-0.29997 9.9641-0.48552 15.249-0.41234 6.1554 0.08525 9.6178-0.22849 9.6336-0.87288 0.01336-0.55327 0.75917-0.84576 1.657-0.65 7.9785 1.7397 0.46103 3.1203-15.308 2.8113-11.203-0.21956-14.977-0.51389-11.232-0.87606zm80.799 0.83956c6.5623-2.7985 2.4267-3.9074-16.879-4.526-21.141-0.67738-26.693 0.59813-22.459 5.1598 1.0027 1.0805 36.666 0.50588 39.338-0.63381zm-26.863-1.3868c4.391-0.28364 11.489-0.47192 15.773-0.41841 4.9326 0.06156 7.5856-0.25164 7.2333-0.85408-0.30599-0.52326 0.34299-0.9294 1.4422-0.90253 1.3985 0.0342 1.8918 0.53891 1.6433 1.6813-0.32154 1.4781-1.9495 1.603-17.216 1.3209-13.524-0.24984-15.28-0.41356-8.8766-0.8272zm199.6 6.2129c6.0939-2.2672 7.7089-7.5543 3.6194-11.849-3.1227-3.2792-11.774-4.5005-16.963-2.3949l-3.7023 1.5022 2.6187 0.82549c6.9668 2.1962 7.3091 10.305 0.43717 10.356-2.3783 0.01761-2.3761 0.02535 0.38842 1.3739 3.7624 1.8353 8.9766 1.9065 13.602 0.18582zm-119.24-4.7525c2.0242-1.2382 2.0506-1.3893 0.5623-3.2161-3.0015-3.684-39.561-2.3318-39.654 1.4667-0.0756 3.101 34.363 4.6421 39.092 1.7494zm-19.89-0.80651c1.041-0.38691 4.8467-0.70073 8.4571-0.69739 4.9096 0.0046 6.8702-0.38142 7.7776-1.5311 1.45-1.8371 3.6292-0.22179 2.7101 2.0088-0.45287 1.099-2.6196 1.332-10.703 1.1506-5.9793-0.13417-9.3588-0.51585-8.2421-0.93088zm73.924 0.79263c0.44781-0.39919 0.53852-1.6742 0.20158-2.8333l-0.61264-2.1075-18.632 0.06649c-19.681 0.07024-20.557 0.19548-20.624 2.9476-0.067 2.7323 36.757 4.521 39.667 1.9267zm-17.174-1.394c5.4218-0.25219 10.197-0.24165 10.612 0.02342 0.41469 0.26508 1.3492-0.28425 2.0767-1.2207 1.0078-1.2972 1.5798-1.4367 2.4022-0.5858 2.4497 2.5346-0.30326 3.1213-12.589 2.6828l-12.359-0.44112 9.8579-0.45853zm69.109 2.1466c2.3896-0.45293 2.9235-3.2588 0.94787-4.9817-2.7037-2.3577-38.495-0.94861-38.91 1.5319-0.53902 3.2274 26.278 5.6644 37.962 3.4498zm-20.765-1.9493c0.31874-0.48862 4.3454-0.7362 8.9482-0.55018 5.5249 0.22329 8.8611-0.05059 9.818-0.80599 1.6807-1.3269 2.7914-0.59032 2.0013 1.3271-0.42328 1.0273-2.8533 1.2757-10.945 1.1189-6.4383-0.12473-10.181-0.53998-9.8219-1.0899zm-193.93-7.9107c5.2744-3.3941 9.0452-3.6511 15.733-1.0725 12.164 4.6901 17.051 3.6585 9.3039-1.9645-10.355-7.5159-26.976-5.8424-34.828 3.5065-2.2491 2.6779 5.4759 2.3074 9.7912-0.4696zm53.09-0.46963c6.7481-3.1201 14.044-3.1873 19.882-0.18321 2.1796 1.1217 5.2007 2.0582 6.7136 2.0812l2.7507 0.0418-3.3611-3.2826c-7.9237-7.7386-29.142-7.3329-33.665 0.64379-2.2991 4.0545-0.0249 4.2615 7.6803 0.69888zm53.726 0.7462c4.0116-4.2207 15.419-4.4319 21.878-0.40513 2.9511 1.8399 7.6381 2.7015 7.6697 1.41 0.0854-3.491-11.901-9.049-19.939-9.2454-6.3362-0.15485-16.538 5.2933-16.626 8.8788-0.0426 1.7436 5.207 1.266 7.017-0.63834zm50.024 0.18022c3.622-5.4961 18.519-5.6872 23.162-0.29721 1.5741 1.8272 6.9592 2.8371 6.9965 1.3122 0.16038-6.5669-19.954-12.289-28.53-8.1163-3.0129 1.4659-8.0021 6.4444-8.0406 8.0236-0.0426 1.7466 5.1455 1.0005 6.4126-0.92225z"/>
</svg>
