<?xml version="1.0" encoding="UTF-8"?>
<svg enable-background="new 0 0 305.146 330.136" viewBox="0 0 305.146 330.136" xmlns="http://www.w3.org/2000/svg">
 <path d="m83.403,66.722c-1.582,1.432-2.665,3.362-6.255,2.781-1.193-1.125-1.727-2.908-1.391-5.56 3.036-2.766 7.059-1.897 7.646,2.779zm-3.477,1.391c1.353-1.34.728-4.254-2.084-3.475-.547,2.4.65,3.057 2.084,3.475z" fill-rule="evenodd"/>
 <path d="m141.784,191.132c25.692-6.411 24.533,30.854 6.255,32.666-12.193,1.208-22.808-12.074-16.682-25.021 1.182-2.495 6.067-6.558 10.427-7.645zm-8.34,21.544c.362.969 5.146,5.969 5.559,6.255 10.441,7.257 21.86-4.646 20.157-15.288-.867-5.401-5.477-7.577-9.73-10.427-13.544-1.982-19.389,10.396-15.986,19.46z" fill-rule="evenodd"/>
 <path d="m177.229,192.523c9.94-1.998 17.777,3.149 18.072,13.898 .183,6.679-4.049,14.431-8.34,16.682-6.143,3.219-14.753,1.261-18.766-2.779-9.48-9.545-3.025-25.381 9.034-27.801zm11.12,25.715c5.024-4.776 4.61-11.53 3.478-17.375-4.657-8.968-23.155-7.83-24.326,3.474 1.226,1.31 2.152-.949 2.78,1.391-1.229,1.305-2.028-.827-3.476.694-.896,14.872 14.389,18.62 21.544,11.816z" fill-rule="evenodd"/>
 <path d="m113.29 195.3h1.391v1.388h-1.391v-1.388z" fill-rule="evenodd"/>
 <path d="m143.87 195.3c0.102 1.953-1.702 2.003-3.475 2.084 1.043-0.812 1.7-2.008 3.475-2.084z" fill-rule="evenodd"/>
 <path d="m111.898,195.998c-.303.855-.89,1.428-2.087,1.39 .304-.854.892-1.429 2.087-1.39z" fill-rule="evenodd"/>
 <path d="m150.82,195.998c1.123-.195 1.195.656 2.084.693 .277,1.351-3.165,1.017-2.084-.693z" fill-rule="evenodd"/>
 <path d="m106.337,196.691c1.444.391 1.474,1.085.696,2.087h-1.39c.368-.562.725-1.129.694-2.087z" fill-rule="evenodd"/>
 <path d="m178.62,198.083v1.388c-3.388.696-1.282-3.698 0-1.388z" fill-rule="evenodd"/>
 <path d="m118.153,200.863c2.803,5.739.497,14.337-6.951,13.9-12.049-.709-5.21-23.396 6.951-13.9zm-10.425,9.728c4.283,1.78 7.774-2.744 9.73-5.559-2.615-4.303-8.773,1.718-9.73,5.559z" fill-rule="evenodd"/>
 <path d="m152.208,200.863c2.812,8.251-1.525,14.972-6.255,14.594-12.539-.998-6.752-23.951 6.255-14.594zm-9.73,2.78v3.475c3.431.043 4.911,2.041 8.342,2.084 .798-1.945.798-3.612 0-5.559-2.783.101-6.05-1.786-8.342,0zm6.952,6.948c-.237-.563-1.845-.837-2.086,0-.46,1.612 2.716,1.503 2.086,0z" fill-rule="evenodd"/>
 <path d="m136.92 199.47h2.78c-0.604 1.019-1.041 2.203-2.78 2.087v-2.087z" fill-rule="evenodd"/>
 <path d="m153.599,199.471c1.518-.124 2.211.57 2.086,2.087-1.517.125-2.211-.569-2.086-2.087z" fill-rule="evenodd"/>
 <path d="m172.364,200.166c2.224,1.173-2.658,4.665-2.084.697 .988.059 1.968.113 2.084-.697z" fill-rule="evenodd"/>
 <path d="m183.484,215.457c-5.035.637-7.82-.98-10.424-2.78-5.054-12.827 12.839-16.382 14.595-6.949 .738,3.96-2.526,6.379-4.171,9.729zm-7.645-5.559h9.036c-.285-1.676 1.27-1.512.695-3.477-2.784-.919-11.529-2.436-9.731,3.477z" fill-rule="evenodd"/>
 <path d="m102.168,201.558c2.795-.404-.347,2.058.694,4.169-3.693-.217-.97-2.324-.694-4.169z" fill-rule="evenodd"/>
 <path d="m120.934,202.252c1.222.166 1.583,1.197 1.388,2.78-.931-.456-1.292-1.485-1.388-2.78z" fill-rule="evenodd"/>
 <path d="m136.223,202.946c.857.304 1.428.891 1.391,2.087-2.411.606-2.384-1.071-1.391-2.087z" fill-rule="evenodd"/>
 <path d="m155.685,202.946c1.223.169 1.584,1.197 1.391,2.781-2.092.7-1.233-1.549-1.391-2.781z" fill-rule="evenodd"/>
 <path d="m232.136,210.591c10.801,1.431-6.653,21.142-9.033,9.732-1.131-5.414 4.449-10.338 9.033-9.732zm-4.865,4.172c.52,2.992 2.749,4.052 4.864,2.083 .156-1.312-.783-1.53-.693-2.778-1.714-.091-3.347-.105-4.171.695z" fill-rule="evenodd"/>
 <path d="m105.643,215.457c-.646,1.484-5.054.952-4.171-1.389 1.862-1.874 2.643.884 4.171,1.389z" fill-rule="evenodd"/>
 <path d="m153.599,214.763c.854,3.169-2.438,2.194-2.779,4.168-1.315-.912.877-4.172 2.779-4.168z" fill-rule="evenodd"/>
 <path d="m118.85 215.46c-0.129 1.956-1.209 2.962-3.475 2.781 0.894-1.192 1.438-2.734 3.475-2.781z" fill-rule="evenodd"/>
 <path d="m143.17 216.85v1.392c-3.389 0.695-1.282-3.699 0-1.392z" fill-rule="evenodd"/>
 <path d="m107.033,216.846c1.122-.194 1.195.657 2.084.697-.133.561-.698.691-.693,1.388h-1.391v-2.085z" fill-rule="evenodd"/>
 <path d="m111.202,216.846c1.444.39 1.473,1.086.696,2.085h-1.391c-.195-1.121.658-1.196.695-2.085z" fill-rule="evenodd"/>
 <path d="m182.79 216.85h1.391v1.392h-1.391v-1.392z" fill-rule="evenodd"/>
 <path d="m181.4,217.543c-.166,1.222-1.195,1.583-2.78,1.388-.7-2.09 1.548-1.23 2.78-1.388z" fill-rule="evenodd"/>
 <path d="m145.26 218.24h1.39v1.39h-1.39v-1.39z" fill-rule="evenodd"/>
 <path d="m234.92 221.02h1.392v1.391h-1.392v-1.391z" fill-rule="evenodd"/>
 <path d="m211.982,241.869c1.474-3.159 4.667-4.597 7.644-6.256 .257,2.806-2.308,2.791-2.778,4.865 2.169-.328 4.336-2.959 6.255-1.39-2.799,2.763-7.101,4.021-10.427,6.255 3.903,18.138 11.555,31.134 22.24,43.093 3.405,3.809 7.538,7.31 11.12,11.12 7.313,7.776 13.325,16.459 15.292,30.58-3.688-1.265-2.559-4.647-3.475-6.95-6.38-16.021-18.87-25.241-29.886-36.837-47.386-.882-108.224.484-160.55-2.085-2.629-.129-4.705.693-6.952,0-5.158-1.589-8.785-7.049-13.205-10.426-.351-11.176.067-19.374 0-31.273-17.889.695-30.48,2.41-47.261,4.168 .235-61.366.91-120.293 2.084-177.23 15.929-5.029 30.991,6.338 46.567,8.341 1.459-5.526-1.511-11.773 0-16.682 1.945-6.326 11.357-7.431 13.205-13.205 2.126-.505 2.045,1.199 4.171.694 3.244-2.083 4.096-6.559 10.424-5.561 .733-2.903-1.463-4.709 0-6.255 5.364-2.283 13.701-1.59 17.375-5.56-5.601-1.654-10.092,3.802-16.679,3.476-3.15-5.095-.098-6.869 4.168-9.731 2.499-1.675 2.76-2.63 4.171-2.78 5.044-.536 8.753,3.813 11.817,6.255-1.162,5.091-1.729,9.083-.697,13.9 4.127.508 5.929,3.338 8.34,5.561 .561-3.379 3.567-4.31 6.255-5.561 .068-8.75 3.859-16.271 11.816-15.29 3.776.465 4.773,3.873 8.339,5.56-1.201,4.239-.767,4.923 0,9.73 4.524,1.037 3.07,8.051 9.73,6.95 2.462-2.402 5.248-4.484 7.646-6.95 .399-13.965 1.005-27.722.696-42.396h4.865c2.049,9.537-1.212,21.259-.696,35.447 .098,2.663-1.611,7.977 2.086,9.035 2.855-2.522.652-7.044.695-11.12 .103-10.237 1.007-23.09 1.39-33.362h8.339c-1.5,13.326-.317,29.335-.693,43.787 4.626.703 3.778,6.879 10.424,5.56 1.338-2.602.291-7.586 2.086-9.73 10.058.039 27.896-.753 44.481,0 6.765.308 19.554-1.167 23.63.695 3.835,1.751 4.358,6.668 4.172,10.425 6.612-.125 12.905.069 18.069,1.391-3.057,44.185-.131,101.096-3.475,144.563 7.168.187 12.167-.308 15.985,2.78 3.371,2.727 3.426,9.111 8.341,10.427 5.753,11.391 8.905,25.38 15.985,35.445 .082,7.263.11,14.474-1.39,20.155-1.129-3.854.785-13.451-2.084-20.155-.563-1.314-2.083-2.835-3.477-4.865-5.379-7.839-10.504-17.345-14.596-27.105-1.914-4.562-2.795-10.125-4.865-11.814-3.256-2.66-10.571-1.957-15.291-2.087 2.629,3.72 7.369,4.178 10.427,7.646 2.321,2.633 3.665,6.9 5.559,10.426 4.878,9.072 12.905,18.893 18.071,28.495-2.39,2.28-5.264-3.831-6.951-6.255-5.126-7.365-11.604-15.811-15.985-24.327-.899-1.752-1.082-4.127-2.084-5.559-3.824-5.47-11.32-7.268-18.071-9.035-4.427-3.602-9.115-7.665-15.289-7.646-5.331.017-10.408,6.308-17.376,2.087-.872,3.079 3.018,6.214 6.256,8.34 4.665,3.062 11.076,5.247 17.375,4.864-.131,1.954-1.21,2.959-3.475,2.78 2.949,6.877 11.577,10.667 18.764,11.121 .765,3.311-4.14.956-4.169,3.475 .418,11.166 9.399,13.768 9.036,25.715-2.102,2.018-1.941-2.143-3.478-2.778-1.607,2.791.289,9.092-1.39,11.814-1.883,1.679-3.859-.763-6.949,0-2.379,2.238 3.556,4.823 1.391,6.951-2.621-1.678-4.703-2.984-6.952-5.562-1.631-1.873-2.6-5.555-4.865-7.646-3.167-2.922-8.924-4.526-11.813-9.035-5.696-8.885-9.645-21.158-15.985-26.412-2.813-2.326-10.829-4.195-13.901,0 11.31-2.574 20.688,14.207 5.56,16.682 1.706,2.695 2.837,5.969 4.867,8.34 3.964-1.348 5.419-4.727.001-2.083zm-118.155-213.372c-5.8-1.769-11.27,1.931-15.289,4.17 3.919.088 11.55-1.796 15.289-4.17zm64.636,4.17c1.029-1.109.158-4.241-.693-5.56 .423,1.661-.874,5.042.693,5.56zm-75.756-4.17c-4.452-.803-1.526,2.122 0,0zm33.36,4.865c1.727.104 2.884-.36 3.477-1.391-.657-.721-3.581-.635-3.477,1.391zm-1.388,3.474c3.292.132 10.925-1.011 13.205-4.17-5.188.606-10.582,1.003-13.205,4.17zm-24.327-1.389c1.675-.285 1.511,1.269 3.475.694v-1.389c-.443-1.698-3.248-.106-3.475.695zm33.36,2.085c2.072-.014 4.235.064 4.171-2.084-1.774.307-3.195.973-4.171,2.084zm-38.225,0c-1.804.099-6.698-.499-6.949,3.476 2.783,3.008 10.95.632 15.985,1.389v-4.17c-3.356.477-6.306-.847-9.036-.695zm27.801,2.78v2.779c5.086-1.739 12.332,2.296 15.29-2.084-2.384-2.609-11.792-1.472-15.29-.695zm68.112,9.035c-.518-2.14 1.907-1.335 1.39-3.474-.702-1.846-1.144-3.955-3.475-4.17-1.219,2.081-1.457,8.118 2.085,7.644zm4.17,0c.801-1.748.329-4.767 2.778-4.865 .917,2.154-2.06,3.855 0,4.865 .614-1.705.626-4.007 2.781-4.17v4.17c3.639,1.089.445-4.653 3.476-4.17 .095,2.223-.685,5.318 2.085,4.865 .389-3.966 1.048-6.149-1.39-8.339h-10.426c1.613,1.956-1.471,5.507.696,7.644zm13.902.695c9.624-.084 22.531.116 29.886,0 .761-2.828.632-4.716-.696-6.951-8.086-1.876-20.347.424-28.495-1.389-.741,2.143.266,5.102-.695,8.34zm31.97,0c3.886,1.107.272-5.289 3.474-4.865 1.873.822-.002,3.625 0,4.865 3.033.251.018-5.542 3.476-4.865 .726,1.969.726,2.896 0,4.865 3.314.998-.532-5.167 2.78-4.169 1.968-.115-.577,4.284 1.391,4.169 1.581-.504-.64-4.81 2.084-4.169 2.199,1.075-.868,4.172.696,4.864 4.506-.715 1-6.732 0-8.34h-13.207c.428,3.312.683,4.949-.694,7.645zm-145.261-1.39c-.119-1.966.598-4.768-1.388-4.865-1.584.987-2.533,5.738 1.388,4.865zm3.477-.694c1.492-1.483.258-3.787-1.39-4.171-.144,1.997.176,3.53 1.39,4.171zm29.886,0c-1.079-.03 1.5-4.935-2.086-4.171-1.907,1.368-.107,7.054 2.086,4.171zm2.778.694c1.033-.591 1.496-1.749 1.39-3.475-.991-.166-1.172-1.145-2.084-1.39-1.357.875-1.762,4.312.694,4.865zm-41.7,0c.617-1.235 1.941-1.767 1.39-4.17h-2.086c-.301,1.545-1.596,3.768.696,4.17zm11.12,0c2.388,1.09 3.298-4.653.694-4.17-.8.822-.786,2.456-.694,4.17zm22.24,0c2.11.256 1.442-2.263 2.085-3.475-.888-.039-.963-.891-2.085-.695v4.17zm12.511,0c1.536-.086.295-2.948.696-4.17h-2.087c.422,1.433-1.122,4.829 1.391,4.17zm-15.985,0c2.153.269 2.831-3.347.694-3.475 .284,1.675-1.267,1.511-.694,3.475zm18.07,0c2.849.719 3.711-4.121.696-3.475-.585.806-.917,1.863-.696,3.475zm-50.736,0v-2.779c-2.744-.482-2.276,2.926 0,2.779zm17.375-2.085c-.209,1.831.962,2.281 2.78,2.084v-2.779c-1.211-.053-2.161.155-2.78.695zm52.126,2.085c2.014.558 8.175,1.917 9.037-.694-2.31-.64-8.13-.707-9.037.694zm-52.82,2.085c-8.739,0-20.555-.649-25.717,1.391h-4.865c-2.577,7.847-.933,19.917-1.39,29.886 8.875,2.709 18.633,4.535 26.412,8.34 1.074,6.882-3.309,15.666 2.086,18.766 1.497-3.831.096-10.56 1.388-14.595 8.457-7.397 21.644-4.33 34.057-4.171 25.551.327 51.116,1.39 75.062,1.39 12.8,0 27.253-1.929 35.445,6.255 2.895,27.16-1.798,64.983-.693,90.353 8.894,3.39 15.623,8.244 26.411,8.34-.998-51.636 2.73-91.973 1.39-143.173-57.561-.598-114.363-2.782-169.586-2.782zm-34.057,4.865c-.153-.541-.582-.807-1.39-.695-1.232,3.401-6.293,2.975-7.646,6.255-.399,5.393.84,12.424-.694,16.682 2.362,1.806 5.848,2.492 9.035,3.475 .693-11.525.369-13.893.695-25.717zm-56.297,16.68c-1.598,42.673.442,103.437-1.39,152.21-.287,7.627-2.587,15.823 2.086,18.766 3.533-2.789 2.063-8.078 2.084-11.816 .31-57.81 1.112-109.117 0-161.244h-2.084c-.04.888-.891.962-.696,2.084zm5.561,170.283c24.637-3.688 51.977-2.295 74.367-6.952 1.585-5.282 1.118-12.607.696-16.682-.925-1.271-3.107,1.525-4.867,0-1.958-1.18-.372-2.901-2.084-4.863-1.746-2.003-4.203-.693-4.865-3.477-1.22-5.113 2.838-6.88 6.255-10.426 3.514-.501 5.006,1.019 6.255,2.78-.507-26.688.782-51.576.694-77.841-1.952,1.116-4.495,4.373-7.644,2.084-1.179-4.382-3.691-7.431-4.865-11.815 2.531-3.027 1.775-9.344 6.95-9.73 1.301.784 3.348.822 2.781,3.475-2.074.155-2.363-2.565-4.171-.695 .873,4.348-2.228,4.724-2.781,7.646-.123,2.44 2.348,2.286 2.781,4.17 1.737.58-.798,5.432 2.084,4.865 2.195.34 2.455-1.253 4.865-.695v-33.361c-25.912-5.995-51.181-14.171-75.06-20.155-1.121,59.537-1.15,112.843-1.391,171.672zm156.378-148.736c-19.154,0-43.955-1.293-58.381-1.39-14.057-.094-14.104,5.231-14.595,20.851-.931,29.686 0,62.31 0,91.047 0,12.979-.636,24.464 2.781,32.667 17.891,2.531 36.898,2.572 54.907,2.78 17.045.198 35.906-.241 54.908,0-1.152-5.158-7.544-3.4-11.122-3.475-26.441-.551-46.707-.696-70.893-.696-7.938,0-23.307,1.44-26.409-2.778-3.735-5.077-.705-24.294-.697-32.669 .029-25.665 0-42.432 0-69.5 0-9.183-2.352-28.326 2.781-32.667 3.819-3.23 15.731-1.805 25.021-1.39 38.226,1.708 69.818-.185 102.863,3.476 5.278,3.836 5.002,11.208 4.864,18.766-.328,18.252-1.209,42.446-1.39,59.772-.031,3.178-2.708,8.661 1.39,10.426 2.729-7.764.969-16.809 1.391-26.412 .491-11.153 1.39-23.392 1.39-34.75 0-11.604 3.02-23.925-3.474-31.276-18.831-3.332-41.354-2.782-65.335-2.782zm13.207,6.95c-14.553-.661-35.831-1.369-52.126-2.086-11.087-.487-23.118-.846-27.107,2.086-2.718,29.839-.665,67.84-2.085,96.608 4.944-4.312 8.87-7.271 15.291-6.951 17.355.864 19.45,31.264 1.391,33.362-8.327.967-11.65-3.275-17.375-6.255 .434,5.586 1.06,10.984 3.474,14.595 30.79,2.933 68.033.135 98.694,2.085-.901-3.463-4.195-5.166-4.171-9.73 .021-3.832 1.71-5.744 4.171-8.34-5.501-6.864-2.73-18.198 5.559-19.462 5.269-.803 8.244,3.351 13.901,1.393 2.174-2.644-4.48-5.405-1.391-9.036 3.59-.118 7.846.429 10.427-.696-.971-25.742 2.78-58.727 0-84.098-14.11-5.589-30.778-2.663-48.653-3.475zm-88.267,20.155c1.397-2.077.393-6.557.694-9.729h-2.78c.696,4.416-2.64,8.977 2.086,9.729zm-2.78,4.171c1.521,17.137-.767,45.173 0,70.198 .093,3.07-1.661,8.781 2.78,9.729-.116-26.669.16-59.881 0-82.013h-2.086c-.038.889-.892.963-.694,2.086zm132.748,66.027c.389,3.821 13.007,4.503 13.207,0-3.179-.937-10.086-1.259-13.207,0zm-121.628,23.631c9.198,13.499 32.546,2.281 23.631-15.985-10.156-10.217-29.612-1.767-23.631,15.985zm112.594-10.427c1.916-2.596-1.109-5.056-3.477-5.559 .41,2.602 1.979,4.047 3.477,5.559zm-4.171,4.866c4.49-1.409 1.098-10.058-4.17-8.339 1.134,3.035 5.611,2.73 4.17,8.339zm-132.054,1.389c4.686-.052 4.462,4.805 6.95,6.952 3.863-.786 3.287-9.672 2.086-13.207-2.359,2.76-1.307-3.744-4.171-2.778-.362,4.271-5.923,3.342-4.865,9.033zm137.613.697c-.197-4.75 5.615-6.693 4.865-9.729-4.613-.255-9.548,7.248-4.865,9.729zm3.478,2.085c-.801-5.665 4.359-5.368 5.559-9.036-4.739-.629-10.654,6.532-5.559,9.036zm-129.971,25.02c-6.957,2.54-17.969,1.027-25.021,3.476 .031,16.093.209,26.27.694,39.615 56.358.166 110.254,1.82 163.331,2.78-8.014-12.143-12.394-27.917-18.07-42.396-33.768,1.244-73.35-.188-111.897-.695-8.267-5.172-3.704-23.17-4.865-35.446h-2.086c-2.395,10.005 2.952,23.467-2.086,32.666zm132.055-25.717c-1.645,7.105 3.15,12.88 8.34,16.682 8.215-1.285 12.851-6.146 14.597-13.901-4.716-6.864-20.205-14.587-22.937-2.781zm70.197,6.255c1.933.414-.291-5.88-2.086-6.255-1.679,2.191 2.269,3.392 2.086,6.255zm-59.772,13.207c.07,2.94 1.87,4.152 4.169,4.865 4.718-3.271 17.517-10.54 9.729-17.376-2.492,6.31-7.214,10.389-13.898,12.511zm-29.885-6.951c2.767,2.793 5.391,5.731 9.034,7.647 11.286-3.957-5.245-18.78-9.034-7.647zm36.836,14.597c7.14,5.628 13.274-3.103 16.681-7.646-.45-2.793-.75-5.738-2.087-7.646h-2.084c-1.366,7.901-8.787,9.75-12.51,15.292zm7.645,4.865c.924.696 2.097,1.145 2.78,2.084 4.002-2.25 8.37-4.137 10.424-8.34-.929-.693-1.363-1.878-2.78-2.084-2.471,3.782-6.85,5.659-10.424,8.34zm-193.913-2.78c-.305,9.74.701,23.427-.694,29.886 3.437,2.354 5.418,6.166 9.73,7.645 .492-13.541-1.621-24.975 0-37.53-2.577-1.899-5.815.347-9.036-.001zm201.558,6.255c2.61,1.162 8.021-.108 8.34-3.475-1.037-.815-.819-2.889-2.78-2.78-1.618,2.321-3.576,4.301-5.56,6.255zm-1.39,9.73c3.121-.341 5.208.353 7.646.695 1.478-1.997.019-6.933 1.39-9.036-3.235-.222-4.638,1.387-7.646,1.391-2.178-1.529-5.83-1.582-9.729-1.391-2.359-.421-1.307-4.254-4.171-4.17h-1.39c2.329,6.475 10.461,7.146 13.9,12.511z" fill-rule="evenodd"/>
 <path d="m248.82 69.503c-2.743 2.029-5.927 1-7.646-1.39 0.343-5.176 8.869-5.53 7.646 1.39z" fill-rule="evenodd"/>
 <path d="m223.796,113.29c2.783,10.227-.251,22.635-.693,34.056-.499,12.783 1.457,25.667-1.391,37.532-15.11,2.439-35.087-.762-50.042,0-3.167.159-5.989.126-8.34,2.084 .239-21.911 1.586-42.884 2.085-65.333 .057-2.562-1.28-6.539 1.39-8.339 18.105-1.029 42.467.04 56.991,0zm-36.141,2.779c-4.182-1.249-15.119,1.989-18.766.695-2.347,4.836-1.087,13.276-1.39,20.155 2.495.575 3.362-1.566 4.864,0-1.334,3.761-.435,9.758-.694,14.595-2.155.236-3.32-1.608-4.865,0-.002,10.425.248,21.099-.696,30.581h22.938c2.018-4.641 3.925-11.723 2.78-17.375h-7.646c-5.648-8.246-.522-16.972-2.087-30.581 2.145-2.066 7.303-1.471 10.427-.695 1.71-8.138 1.154-15.577-4.865-17.375zm13.901,0c-4.59,2.129-2.344,11.092-3.474,16.68 2.142,2.184 7.653-.824 9.033.696-.588,7.876 1.469,24.081-1.388,31.971h-7.646c-.452,5.888-1.534,11.085.693,17.376 7.118-.641 14.886,1.022 20.156,0 3.397-7.955-.181-22.886 2.084-31.972-.482-1.371-3.877.171-4.168-1.389 .587-2.488-.37-7.448 0-11.815 .887-.965 3.281-.426 4.168-1.391 .613-6.569-1.415-15.779 1.391-20.156-7.175.197-14.881.181-20.849,0zm-16.681,20.156c-1.155,5.474-.53,16.488-.694,25.021 1.699,1.614 5.875,1.823 8.34.695-.657-8.481.318-18.167.696-25.716-1.597-1.087-6.748-1.087-8.342,0zm13.9,0c-1.754,8.807-.592,16.619-.693,26.41h5.559c1.583-7.221.262-17.346.696-25.715-1.013-1.075-3.561-.612-5.562-.695zm-29.885,11.816c.881-1.608 2.053-9.443-1.39-9.036-.718,1.769-2.171,9.326 1.39,9.036zm52.126-.696c-.728-2.516 1.577-8.063-1.39-8.34-.759,1.62-2.087,8.75 1.39,8.34zm-25.021,13.901c.188-.947-.431-2.714-.694-1.39-.189.947.43,2.713.694,1.39zm0,7.643c.091-.911.106-5.026-.694-2.778-.091.913-.107,5.027.694,2.778z" fill-rule="evenodd"/>
 <path d="m160.55,113.29c2.463,4.374.902,9.174.693,13.9-.857,19.553-.609,40.616-.693,56.992-19.098,1.379-43.271.876-59.772-.694 .387-23.475.272-47.452 1.39-70.197 .509-.649 1.264-1.054 2.085-1.39 16.222,1.126 38.373-.083 56.297,1.389zm-55.603,2.084c-1.954,4.765.517,13.955-1.391,18.766 .939,1.38 4.852-.219 4.867,2.085 .523,4.231-1.112,6.303-.696,10.425-1.126,1.191-4.364.27-4.171,2.781v31.274c6.453-1.438 14.811,2.008 21.546,0 3.165-3.786 3.284-10.617 3.475-17.375-2.606-1.562-8.589.25-11.12-1.389-.253-9.866 1.162-21.391.696-29.192 2.822-1.959 6.126.536 9.73,0 2.755-7.258-1.931-12.821-4.171-17.375-6.066.179-14.904-.253-18.765,0zm27.107,4.171c-.518-2.139 1.908-1.336 1.39-3.476h-2.086c.38,1.011-.813,3.592.696,3.476zm4.865-2.78c-2.241,3.783-3.367,8.681-2.781,15.29 3.025.449 7.857-.906 9.73.695-.459,10.199 1.17,22.485-1.391,30.582-3.173.302-7.651-.702-9.729.695 .407,6.448.139,14.311 4.865,18.071h19.462c1.749-8.674-.238-21.088 1.388-29.886-1.207-1.341-4.825-.271-4.864-2.779v-11.815c1.013-1.306 4.549-.085 5.562-1.391-.416-6.303.859-14.298-.697-19.46-7.384-1.024-15.747-.184-21.545-.002zm-2.78,18.07c-.064,11.653-.657,15.662-.694,26.411 1.829-1.181 5.954-.069 7.644-1.39-.197-8.841-1.039-15.806 0-24.326-1.892-.608-5.579-1.719-6.95-.695zm-13.205.695c.54,8.881-.998,15.685-.696,24.326 2.086.925 5.318.707 8.34.695 .445-7.346-.271-16.572 0-25.716-2.555.227-6.152-.593-7.644.695zm-15.987,8.341c-.624-1.924 1.427-6.525-1.391-6.255 .626,1.923-1.427,6.524 1.391,6.255zm52.823,3.474c2.473-.852 2.071-8.372-1.39-7.646-1.011,1.691-1.606,7.769 1.39,7.646zm-26.412,25.717c-.255-1.869.638-8.461-.694-6.951 .9,3.049-1.775,6.512.694,6.951z" fill-rule="evenodd"/>
 <path d="m79.232 267.58c-0.792 2.219-2.768 3.254-5.56 3.475-6.061-3.529 4.203-10.739 5.56-3.475z" fill-rule="evenodd"/>
</svg>
